<?xml version="1.0" standalone="no"?>
<!DOCTYPE svg PUBLIC "-//W3C//DTD SVG 20010904//EN"
 "http://www.w3.org/TR/2001/REC-SVG-20010904/DTD/svg10.dtd">
<svg version="1.0" xmlns="http://www.w3.org/2000/svg"
 width="250.000000pt" height="250.000000pt" viewBox="0 0 250.000000 250.000000"
 preserveAspectRatio="xMidYMid meet">
<metadata>
Created by potrace 1.16, written by Peter Selinger 2001-2019
</metadata>
<g transform="translate(0.000000,250.000000) scale(0.100000,-0.100000)"
fill="#000000" stroke="none">
<path d="M0 1250 l0 -1250 615 0 615 0 0 85 0 85 -50 0 -50 0 0 -35 0 -35
-510 0 -510 0 0 1150 0 1150 233 2 232 3 3 48 3 47 -290 0 -291 0 0 -1250z"/>
<path d="M470 1720 l0 -530 50 0 50 0 0 215 0 215 280 0 280 0 0 -94 0 -93
-34 -24 c-106 -72 -103 -232 4 -295 l30 -18 0 -333 0 -333 50 0 50 0 0 256 0
256 58 -53 c101 -94 218 -139 362 -139 134 0 231 32 332 108 l48 36 0 203 0
203 -210 0 -210 0 0 -50 0 -50 165 0 166 0 -3 -132 -3 -132 -40 -27 c-114 -78
-299 -92 -427 -32 -37 17 -87 51 -113 74 -47 44 -100 121 -93 138 1 6 18 20
37 33 45 31 71 82 71 141 0 58 -17 94 -65 136 l-36 31 32 44 c138 193 425 232
618 85 l54 -41 31 32 31 31 -38 33 c-98 87 -237 132 -377 123 -135 -9 -238
-52 -338 -142 l-52 -47 0 291 0 291 585 0 585 0 0 -800 0 -800 -182 -2 -183
-3 -3 -48 -3 -47 235 0 236 0 0 900 0 900 -685 0 -685 0 0 -255 0 -255 -280 0
-280 0 0 265 0 265 -50 0 -50 0 0 -530z m776 -356 c40 -19 64 -59 64 -106 0
-61 -54 -108 -126 -108 -51 0 -104 53 -104 104 0 51 25 95 63 111 42 19 62 18
103 -1z"/>
</g>
</svg>
